<!-- icon666.com - MILLIONS vector ICONS FREE --><svg fill="none" viewBox="0 0 32 32" xmlns="http://www.w3.org/2000/svg"><g clip-rule="evenodd" fill="rgb(0,0,0)" fill-rule="evenodd"><path d="m4 23c0-.5523.44772-1 1-1h8c.5523 0 1 .4477 1 1s-.4477 1-1 1h-8c-.55228 0-1-.4477-1-1z" fill="rgb(0,0,0)" style="fill: rgb(102, 255, 127);"></path><path d="m9 18c.55228 0 1 .4477 1 1v8c0 .5523-.44772 1-1 1s-1-.4477-1-1v-8c0-.5523.44772-1 1-1z" fill="rgb(0,0,0)" style="fill: rgb(102, 255, 127);"></path><path d="m4 9c0-.55228.44772-1 1-1h8c.5523 0 1 .44772 1 1s-.4477 1-1 1h-8c-.55228 0-1-.44772-1-1z" fill="rgb(0,0,0)" style="fill: rgb(102, 255, 127);"></path><path d="m18 21.0125c0-.5523.4477-1 1-1h8c.5523 0 1 .4477 1 1 0 .5522-.4477 1-1 1h-8c-.5523 0-1-.4478-1-1z" fill="rgb(0,0,0)" style="fill: rgb(102, 255, 127);"></path><path d="m18 24.9875c0-.5522.4477-1 1-1h8c.5523 0 1 .4478 1 1 0 .5523-.4477 1-1 1h-8c-.5523 0-1-.4477-1-1z" fill="rgb(0,0,0)" style="fill: rgb(102, 255, 127);"></path><path d="m26.7071 5.29289c.3905.39053.3905 1.02369 0 1.41422l-6 5.99999c-.3905.3905-1.0237.3905-1.4142 0s-.3905-1.0237 0-1.4142l6-6.00001c.3905-.39052 1.0237-.39052 1.4142 0z" fill="rgb(0,0,0)" style="fill: rgb(102, 255, 127);"></path><path d="m19.2929 5.29289c.3905-.39052 1.0237-.39052 1.4142 0l6 6.00001c.3905.3905.3905 1.0237 0 1.4142s-1.0237.3905-1.4142 0l-6-5.99999c-.3905-.39053-.3905-1.02369 0-1.41422z" fill="rgb(0,0,0)" style="fill: rgb(102, 255, 127);"></path></g></svg>